<svg xmlns="http://www.w3.org/2000/svg" version="1.1" xmlns:xlink="http://www.w3.org/1999/xlink" width="512" height="512" x="0" y="0" viewBox="0 0 512 512" style="enable-background:new 0 0 512 512" xml:space="preserve" class=""><g><path d="M256 512c-68.38 0-132.667-26.629-181.019-74.981C26.629 388.667 0 324.38 0 256c0-68.38 26.629-132.667 74.981-181.019C123.333 26.629 187.62 0 256 0c68.38 0 132.667 26.629 181.019 74.981C485.371 123.333 512 187.62 512 256c0 68.38-26.629 132.667-74.981 181.019C388.667 485.371 324.38 512 256 512z" style="" fill="#ffffff" data-original="#ffffff" class=""></path><path d="M499.853 256c0 17.625-1.834 34.816-5.316 51.387-.103.491-2.627 1.154-2.734 1.648-.105.487 2.206.804 2.1 1.288C469.41 420.21 372.191 502.295 256 502.295a243.75 243.75 0 0 1-41.026-3.468c-.417-.071.267-4.504-.146-4.578-.565-.1-2.227 4.158-2.789 4.056C98.344 477.399 12.147 376.862 12.147 256c0-13.477 1.073-26.698 3.131-39.585.07-.448 5.638-.59 5.712-1.035.091-.543-5.311-1.389-5.215-1.93C35.732 97.701 135.693 9.705 256 9.705c5.794 0 11.529.207 17.226.611.493.033.018 2.688.51 2.725.541.041 2.05-2.535 2.591-2.489C401.492 20.976 499.853 126.892 499.853 256z" style="" fill="#badff2" data-original="#b5e1e8" class="" opacity="1"></path><path d="M494.537 307.387c-.205.975-.419 1.961-.634 2.936-21.81-.177-44.723-9.97-61.978-27.27-18.552-18.6-31.262-44.757-37.748-77.731-.302-1.566-.605-3.143-.907-4.729-2.604-13.783-5.297-28.048-15.06-37.279-7.579-7.152-18.191-9.95-28.453-12.65-2.868-.759-5.843-1.537-8.711-2.404-31.203-9.448-56.935-32.481-68.806-61.613-9.998-24.521-9.354-52.875.985-76.332 1.034.069 2.068.148 3.102.236-10.447 22.906-11.217 50.845-1.385 74.972 11.549 28.314 36.568 50.707 66.952 59.899 2.809.857 5.755 1.635 8.603 2.384 10.612 2.788 21.586 5.675 29.711 13.349 10.456 9.891 13.246 24.63 15.938 38.885.302 1.576.595 3.153.897 4.699 6.379 32.393 18.806 58.037 36.949 76.223 16.865 16.906 39.28 26.422 60.515 26.422h.03zM214.974 498.827c-.985-.167-1.96-.345-2.936-.522 8.613-24.285 10.925-49.082 6.477-71.386-6.321-31.703-26.814-58.411-53.472-69.692-11.656-4.926-24.385-6.926-34.169-8.128l-.185-.02c-3.365-.414-6.847-.837-9.861-2.709-4.458-2.768-6.555-7.842-8.018-12.433-2.897-9.073-4.477-18.59-5.999-27.802-1.6-9.635-3.258-19.595-6.418-28.925-7.959-23.536-26.2-43.515-48.78-53.446-11.383-5.005-23.868-7.458-36.334-7.349.156-.995.322-1.98.498-2.965 12.7-.03 25.41 2.502 37.007 7.606 23.322 10.256 42.157 30.895 50.38 55.2 3.238 9.556 4.906 19.645 6.526 29.398 1.512 9.103 3.082 18.512 5.901 27.378 1.307 4.079 3.121 8.551 6.769 10.817 2.478 1.547 5.628 1.931 8.681 2.295l.185.03c9.979 1.212 22.961 3.261 34.949 8.335 27.546 11.655 48.693 39.171 55.208 71.829 4.525 22.678 2.233 47.85-6.409 72.489zM159.083 71.614c-23.049 0-41.806 18.945-41.806 42.235 0 23.28 18.757 42.225 41.806 42.225s41.806-18.945 41.806-42.225c0-23.29-18.757-42.235-41.806-42.235zm0 81.504c-21.44 0-38.88-17.615-38.88-39.269s17.44-39.279 38.88-39.279 38.88 17.625 38.88 39.279c0 21.654-17.44 39.269-38.88 39.269zM351.844 366.419c-22.776 0-41.309 18.718-41.309 41.722s18.533 41.722 41.309 41.722c22.776 0 41.309-18.718 41.309-41.722s-18.533-41.722-41.309-41.722zm0 80.489c-21.166 0-38.382-17.388-38.382-38.767 0-21.378 17.216-38.767 38.382-38.767 21.166 0 38.382 17.388 38.382 38.767s-17.216 38.767-38.382 38.767z" style="" fill="#344767" data-original="#412945" class="" opacity="1"></path><ellipse cx="166.579" cy="266.716" rx="47.835" ry="48.314" style="" fill="#7673ab" data-original="#6e72ff" class="" opacity="1"></ellipse><path d="M150.277 265.815c0 3.423-2.747 6.197-6.136 6.197-3.388 0-6.135-2.774-6.135-6.197 0-3.422 2.747-6.197 6.135-6.197 3.389.001 6.136 2.775 6.136 6.197zM196.65 265.815c0 3.423-2.747 6.197-6.136 6.197s-6.136-2.774-6.136-6.197c0-3.422 2.747-6.197 6.136-6.197s6.136 2.775 6.136 6.197z" style="" fill="#344767" data-original="#412945" class="" opacity="1"></path><path d="M160.978 268.986h17.265s.428 16.717-7.848 16.861c-9.028.158-9.417-16.861-9.417-16.861z" style="" fill="#ffcfcf" data-original="#f7ede5" class="" opacity="1"></path><path d="M261.929 397.392H72.632c11.908-44.459 49.78-76.954 94.644-76.954 44.873 0 82.745 32.495 94.653 76.954z" style="" fill="#7673ab" data-original="#6e72ff" class="" opacity="1"></path><ellipse cx="346.483" cy="266.716" rx="47.835" ry="48.314" style="" fill="#4da5a0" data-original="#e36352" class="" opacity="1"></ellipse><path d="M362.784 265.815c0 3.423 2.747 6.197 6.136 6.197 3.388 0 6.135-2.774 6.135-6.197 0-3.422-2.747-6.197-6.135-6.197-3.389.001-6.136 2.775-6.136 6.197zM316.412 265.815c0 3.423 2.747 6.197 6.135 6.197s6.135-2.774 6.135-6.197c0-3.422-2.747-6.197-6.135-6.197-3.389.001-6.135 2.775-6.135 6.197z" style="" fill="#344767" data-original="#412945" class="" opacity="1"></path><path d="M355.222 268.986h-17.265s-.428 16.717 7.848 16.861c9.028.158 9.417-16.861 9.417-16.861z" style="" fill="#ffcfcf" data-original="#f7ede5" class="" opacity="1"></path><path d="M251.133 397.392h189.296c-11.908-44.459-49.78-76.954-94.644-76.954-44.873 0-82.745 32.495-94.652 76.954z" style="" fill="#4da5a0" data-original="#e36352" class="" opacity="1"></path><path d="m402.579 394.087-2.71-23.64c-.077-.669-.682-1.157-1.337-1.071a1.215 1.215 0 0 0-1.06 1.351l2.678 23.36H291.603l2.678-23.36a1.216 1.216 0 0 0-1.06-1.351c-.663-.085-1.261.402-1.337 1.071l-2.71 23.64h-65.285l-2.71-23.64c-.077-.669-.683-1.157-1.337-1.071a1.215 1.215 0 0 0-1.06 1.351l2.678 23.36H112.912l2.678-23.36a1.216 1.216 0 0 0-1.06-1.351c-.664-.085-1.261.402-1.337 1.071l-2.71 23.64H68.682v7.953h375.804v-7.953h-41.907z" style="" fill="#344767" data-original="#412945" class="" opacity="1"></path><path d="M214.329 95.672 92.818 97.667c-13.046.214-23.111 11.697-22.454 25.616l2.064 43.742c.669 14.179 12.186 25.335 25.447 24.65l42.716-2.206 31.511 24.761-5.613-26.211 50.322.234c12.944.06 23.184-11.015 22.945-24.817l-.73-42.286c-.244-14.17-11.417-25.697-24.697-25.478z" style="" fill="#ffffff" data-original="#ffffff" class=""></path><ellipse cx="121.364" cy="144.072" rx="6.679" ry="6.746" style="" fill="#344767" data-original="#412945" class="" opacity="1"></ellipse><path d="M162.452 144.072c0 3.726-2.99 6.746-6.679 6.746s-6.679-3.02-6.679-6.746c0-3.726 2.99-6.746 6.679-6.746 3.688 0 6.679 3.02 6.679 6.746z" style="" fill="#344767" data-original="#412945" class="" opacity="1"></path><ellipse cx="190.181" cy="144.072" rx="6.679" ry="6.746" style="" fill="#344767" data-original="#412945" class="" opacity="1"></ellipse><path d="m291.185 100.086 121.511 1.996c13.046.214 23.111 11.697 22.454 25.616l-2.064 43.742c-.669 14.179-12.186 25.335-25.447 24.65l-42.716-2.206-31.511 24.761 5.613-26.211-50.322.234c-12.944.06-23.184-11.015-22.945-24.817l.73-42.286c.243-14.17 11.417-25.697 24.697-25.479z" style="" fill="#d56565" data-original="#c2bf69" class="" opacity="1"></path><ellipse cx="350.872" cy="146.746" rx="37.541" ry="37.917" style="" fill="#ffcfcf" data-original="#f7ede5" class="" opacity="1"></ellipse><path d="m345.398 165.665-.052-.001a1.832 1.832 0 0 1-1.394-.709l-12.514-16.115a1.868 1.868 0 0 1 .311-2.606 1.827 1.827 0 0 1 2.581.315l11.149 14.357 26.068-29.921a1.824 1.824 0 0 1 2.594-.167 1.87 1.87 0 0 1 .166 2.62l-27.53 31.597c-.349.401-.852.63-1.379.63z" style="" fill="#d56565" data-original="#c2bf69" class="" opacity="1"></path><path d="m87.527 299.162-15.052 3.894-3.855 15.203c-.71 2.798-4.644 2.798-5.354 0l-3.855-15.203-15.052-3.894c-2.77-.717-2.77-4.691 0-5.408l15.052-3.894 3.855-15.203c.709-2.798 4.644-2.798 5.354 0l3.855 15.203 15.052 3.894c2.77.717 2.77 4.691 0 5.408zM332.583 56.682l-15.052 3.894-3.855 15.203c-.71 2.798-4.644 2.798-5.354 0l-3.855-15.203-15.052-3.894c-2.77-.717-2.77-4.691 0-5.408l15.052-3.894 3.855-15.203c.71-2.798 4.644-2.798 5.354 0l3.855 15.203 15.052 3.894c2.771.717 2.771 4.691 0 5.408zM472.545 248.352l-15.052 3.894-3.855 15.203c-.71 2.798-4.644 2.798-5.354 0l-3.855-15.203-15.052-3.894c-2.77-.717-2.77-4.691 0-5.407l15.052-3.894 3.855-15.203c.71-2.798 4.644-2.798 5.354 0l3.855 15.203 15.052 3.894c2.77.716 2.77 4.69 0 5.407zM273.81 264.953l-15.052 3.894-3.855 15.203c-.71 2.798-4.644 2.798-5.354 0l-3.855-15.203-15.052-3.894c-2.77-.717-2.77-4.691 0-5.407l15.052-3.894 3.855-15.203c.71-2.798 4.644-2.798 5.354 0l3.855 15.203 15.052 3.894c2.77.717 2.77 4.691 0 5.407zM287.756 464.169l-15.052 3.894-3.855 15.203c-.71 2.798-4.644 2.798-5.354 0l-3.855-15.203-15.052-3.894c-2.77-.717-2.77-4.691 0-5.408l15.052-3.894 3.855-15.203c.71-2.798 4.644-2.798 5.354 0l3.855 15.203 15.052 3.894c2.77.717 2.77 4.692 0 5.408z" style="" fill="#ffffff" data-original="#ffffff" class=""></path></g></svg>