<svg xmlns="http://www.w3.org/2000/svg" version="1.1" xmlns:xlink="http://www.w3.org/1999/xlink" width="512" height="512" x="0" y="0" viewBox="0 0 512 512" style="enable-background:new 0 0 512 512" xml:space="preserve" class=""><g><path fill="#ffffff" d="m261.805 304.547 97.721-46.647c7.232 5.308 31.672 19.425 40.697 19.425 15.115 0 25.282-16.898 16.769-30.463a170.367 170.367 0 0 1-7.658-13.6 41.692 41.692 0 0 0 15.944-42.418l-11.164-51.793a70.331 70.331 0 0 0 8.786.547c37.549 0 68.096-29.966 68.096-66.8C490.996 35.967 460.449 6 422.9 6c-35.233 0-64.303 26.382-67.753 60.068-82.278 5.026-149.439 37.32-182.69 56.517a42.012 42.012 0 0 0-19.512 46.869c.642 2.461 1.3 4.875 1.966 7.267l-17.546 2.798-11.49-57.86a34.918 34.918 0 0 0-39.869-27.682L55.28 98.966a35.044 35.044 0 0 0-28.936 39.783l8.75 57.075-14.09 2.247 10.345 78.898 9.995-1.683c-4.872 9.8.034 19.676.31 24.049.715 11.67 1.385 23.505 9.32 32.706-.157 7.255 1.583 14.149 6.35 19.66a14.96 14.96 0 0 0 1.506 3.435c1.41 6.686 3.391 12.462 9.177 16.09a16.472 16.472 0 0 0 2.587 1.32 14.873 14.873 0 0 0 9.413 3.858l8.249 37.733c7.386 1.696 7.497 1.733 8.517 1.948l4.806 22.156 35.395-7.884 1.652-20.776c5.444-3.313 7.321-5.63 10.589-8.781l-.342-26.144a228.12 228.12 0 0 0 20.37-2.774c6.083 2.14 12.096 4.475 18.412 6.928l4.266 1.654-1.664 3.464 19.586 13.687-4.597 9.944 168.958 86.835c18.861 10.217 46.264 17.151 65.21 5.52 16.665-10.233 35.08-25.284 49.775-38.186l.988-155.52-67.541 69.793zm-10.645 3.693-.015-.009.021-.004z" opacity="1" data-original="#ffffff"></path><path fill="#b2aca3" d="m38.111 136.944 11.886 77.531 79.576-13.073-15.374-77.424a23.035 23.035 0 0 0-26.285-18.25l-30.726 4.989a23.035 23.035 0 0 0-19.077 26.227z" opacity="1" data-original="#b2aca3" class=""></path><path fill="#1d1d3d" d="m104.276 394.52 6.399 29.498 15.129-3.37 2.161-27.185z" opacity="1" data-original="#1d1d3d"></path><path fill="#7673ab" d="M406.898 253.174a7.968 7.968 0 0 1-9.924 11.55c-12.143-5.285-26.401-12.34-35.807-20.8L255.77 294.237a29.885 29.885 0 0 1-36.654-8.783c-15.578-20.488-38.953-58.802-54.652-119.004a29.99 29.99 0 0 1 13.953-33.56c31.864-18.396 100.832-51.955 184.773-55.309a29.993 29.993 0 0 1 30.585 23.618l19.866 92.153c5.506 25.543-19.645 34.848-19.745 34.942a181.88 181.88 0 0 0 13.002 24.88z" opacity="1" data-original="#a369f7" class=""></path><g fill="#fff"><path d="M201.774 157.615c-4.405-.674-7.686 2.474-9.194 5.945a7.18 7.18 0 0 0 2.456 8.443c5.585 3.926 13.623-1.373 11.816-8.755-.628-2.567-1.45-4.833-5.078-5.633zM224.044 156.926a8.98 8.98 0 0 1 3.687-12.599c20.29-10.21 73.49-35.09 123.093-42.154a7.315 7.315 0 0 1 8.237 6.028 7.292 7.292 0 0 1-5.31 8.271c-19.708 5.246-80.213 22.332-117.488 43.665a8.987 8.987 0 0 1-12.22-3.21zM217.139 197.38c-4.406-.673-7.687 2.475-9.195 5.946a7.18 7.18 0 0 0 2.456 8.443c5.585 3.926 13.623-1.373 11.816-8.755-.628-2.567-1.45-4.833-5.077-5.633zM239.408 196.692a8.98 8.98 0 0 1 3.687-12.599c20.29-10.21 73.49-35.09 123.093-42.154a7.315 7.315 0 0 1 8.237 6.028 7.292 7.292 0 0 1-5.31 8.272c-19.708 5.245-80.213 22.33-117.488 43.664a8.987 8.987 0 0 1-12.22-3.21zM232.503 242.877c-4.406-.674-7.687 2.474-9.195 5.946a7.18 7.18 0 0 0 2.456 8.443c5.585 3.926 13.623-1.374 11.816-8.756-.628-2.567-1.45-4.832-5.077-5.633zM254.772 242.189a8.98 8.98 0 0 1 3.687-12.6c20.29-10.21 73.49-35.089 123.093-42.153a7.315 7.315 0 0 1 8.237 6.027 7.292 7.292 0 0 1-5.31 8.272c-19.708 5.245-80.213 22.331-117.488 43.665a8.987 8.987 0 0 1-12.219-3.211z" fill="#ffffff" opacity="1" data-original="#ffffff"></path></g><path fill="#ffad92" d="M86.9 360.164a226.382 226.382 0 0 0 83.233-.57c16.006 5.433 31.492 12.394 47.864 17.648a216.632 216.632 0 0 0 26.773-52.06c-22.816-10.401-45.633-20.804-67.607-29.333q-45.097.441-90.07 4.353c-3.435 20.306-4.685 40.981-.193 59.962z" opacity="1" data-original="#ffad92" class=""></path><path fill="#badff2" d="m268.056 330.397-31.128-16.122-31.56 65.69 29.764 20.799z" opacity="1" data-original="#ffb020" class=""></path><path fill="#344767" d="m135.186 238.318 2.058 157.548s-14.285 14.042-38.97 8.36L64.983 251.932z" opacity="1" data-original="#0071ff" class=""></path><ellipse cx="422.9" cy="72.799" fill="#badff2" rx="56.191" ry="54.894" opacity="1" data-original="#ffb020" class=""></ellipse><path fill="#ffffff" d="M421.585 93.36c-3.507-15.18 15.508-29.683 9.139-41.852-2.434-4.65-9.158-6.858-14.388-4.726-5.1 2.08-8.758 7.764-8.898 13.823a2.5 2.5 0 0 1-4.999-.116c.187-8.114 5.013-15.484 12.01-18.337 7.6-3.1 17.086.122 20.704 7.037 8.143 15.556-11.802 29.608-8.695 43.046a2.5 2.5 0 1 1-4.873 1.126zM431.704 104.406c-1.899-4.271-8.637-2.944-8.8 1.727l-.002.07c-.071 2.907 2.196 6.015 5.464 5.36a4.9 4.9 0 0 0 3.764-4.132 5.462 5.462 0 0 0-.425-3.025z" opacity="1" data-original="#ffffff"></path><path fill="#ffad92" d="M120.54 308.26a14.144 14.144 0 0 1-1.04 2.19 13.146 13.146 0 0 1-1.86 2.46 11.359 11.359 0 0 1-1.99 1.68 9.5 9.5 0 0 1-4.14 1.61c-1.53 4.75-.4 10.14-2.36 14.73-1.52 3.56-4.68 6.11-7.84 8.75 2.26 5.32-.38 11.75-4.8 15.46-4.43 3.72-10.25 5.27-15.92 6.39-2.11.42-4.44.75-6.26-.39-1.66-1.04-2.42-3.03-2.97-4.91a53.357 53.357 0 0 1-1.85-9.81c-3.28-1.57-5.34-5.01-6.13-8.55a30.299 30.299 0 0 1-.08-10.57c-8.84-6.26-9.07-17.74-9.76-28.72-.41-6.44-4.53-13.39-1.06-18.83 2.12-3.33 6.32-4.56 10.18-5.35a120.858 120.858 0 0 1 37.18-1.73 39.254 39.254 0 0 1 10.94 2.53 20.035 20.035 0 0 1 2.62 1.31 16.307 16.307 0 0 1 2.67 2 13.694 13.694 0 0 1 1.83 2.04c3.15 4.31 3.5 9.99 3.73 15.32.18 4.17.34 8.47-1.09 12.39z" opacity="1" data-original="#ffad92" class=""></path><path fill="#ed6c4d" d="M67.666 301.276c-2.983 0-5.973-.117-8.972-.374a2.5 2.5 0 1 1 .426-4.981c18.586 1.587 37.23-2.467 55.262-6.39a2.5 2.5 0 1 1 1.063 4.886c-15.541 3.381-31.53 6.859-47.779 6.859zM65.222 329.476a2.5 2.5 0 0 1-.03-5c13.971-.172 31.323-4.216 45.283-10.554a2.5 2.5 0 1 1 2.067 4.553c-14.55 6.605-32.67 10.82-47.29 11zM71.598 350.016a2.5 2.5 0 0 1-.16-4.995c9.176-.597 17.428-3.547 26.164-6.67l2.87-1.023a2.5 2.5 0 0 1 1.67 4.713l-2.857 1.018c-6.763 2.418-19.359 6.957-27.687 6.957z" opacity="1" data-original="#ed6c4d"></path><path fill="#ed6c4d" d="M80.584 364.034a2.5 2.5 0 0 1-.481-4.953c5.31-1.05 10.778-2.484 14.796-5.855 3.463-2.906 5.986-8.153 4.108-12.561a2.611 2.611 0 0 1 1.038-3.184c2.866-2.39 5.573-4.649 6.805-7.53a21.254 21.254 0 0 0 1.179-7.041 29.578 29.578 0 0 1 1.1-7.478 2.5 2.5 0 0 1 2.062-1.714c2.896-.37 5.775-2.97 7-6.32a2.5 2.5 0 1 1 4.696 1.717 14.894 14.894 0 0 1-9.352 9.203 34.533 34.533 0 0 0-.515 4.887 25.29 25.29 0 0 1-1.572 8.711c-1.532 3.583-4.355 6.17-7.229 8.592 1.59 6.177-1.669 12.825-6.106 16.548-5.523 4.634-15.563 6.978-17.529 6.978z" opacity="1" data-original="#ed6c4d"></path><path fill="#ffad92" d="M179 330.95a23.11 23.11 0 0 0 .22 2.51c-8.69-.26-17.52-1.24-25.49-4.7-7.97-3.46-15.06-9.71-17.9-17.92-.15 3.21-4.71 6.33-9.03 6.96-4.82.7-7.77-1.31-9.16-4.89a10.837 10.837 0 0 1-.43-1.33 24.943 24.943 0 0 1-.46-7.27 279.204 279.204 0 0 1-3.35-27.8c-.12-1.31-.22-2.63-.33-3.94-.07-.82-.14-1.67-.14-2.49a10.069 10.069 0 0 1 .41-3.09c2.11-6.63 9.96-6.82 16.3-6.27 9.01.78 18.43 2.19 25.67 7.62 7.11 5.34 26.43 33.73 29.94 38.98-3.66 7.9-6.57 16.14-6.25 23.63z" opacity="1" data-original="#ffad92" class=""></path><path fill="#ed6c4d" d="M135.247 313.135a2.5 2.5 0 0 1-1.215-3.32 43.69 43.69 0 0 0 2.579-29.08 2.5 2.5 0 0 1 4.835-1.276 48.774 48.774 0 0 1-2.879 32.461 2.5 2.5 0 0 1-3.32 1.215z" opacity="1" data-original="#ed6c4d"></path><path fill="#ed6c4d" d="M181.71 333.54a2.496 2.496 0 0 1-2.49 2.42h-.08c-7.56-.23-17.39-.99-26.4-4.91-7.81-3.39-13.99-8.85-17.49-15.34a13.284 13.284 0 0 1-8.09 4.56c-5.71.83-9.59-1.55-11.51-5.68a13.66 13.66 0 0 1-.86-2.38 26.683 26.683 0 0 1-.55-7.72c-1.77-9.71-2.67-19.64-3.46-29.29a20.035 20.035 0 0 1 2.62 1.31c-.12-1.31-.22-2.63-.33-3.94-.07-.82-.14-1.67-.14-2.49a2.487 2.487 0 0 1 2.63 2.28v.02q.24 3.045.51 6.13c.72 8.43 1.6 17.01 3.14 25.34.16.89-.28 3.85.29 6.6l.12.5c1 3.79 3.32 4.88 6.82 4.38 3.13-.46 5.19-2.68 7.31-5.87a2.495 2.495 0 0 1 4.44.56c2.4 6.93 8.43 12.92 16.54 16.45 8.13 3.52 17.2 4.26 24.27 4.48.1 0 .19.01.29.01a2.496 2.496 0 0 1 2.42 2.58z" opacity="1" data-original="#ed6c4d"></path><path fill="#d56565" d="m478.084 335.823-52.679 54.435-165.13-73.364-39.432 85.296 158.931 81.682s33.15 18.335 53.411 5.896 44.134-33.451 44.134-33.451z" opacity="1" data-original="#ff605b" class=""></path><path fill="#1689c1" d="m34.313 208.004 7.235 55.175 114.01-19.192-6.409-54.292z" opacity="1" data-original="#00abfe" class=""></path></g></svg>