<svg xmlns="http://www.w3.org/2000/svg" version="1.1" xmlns:xlink="http://www.w3.org/1999/xlink" width="512" height="512" x="0" y="0" viewBox="0 0 512 512" style="enable-background:new 0 0 512 512" xml:space="preserve" class=""><g><path fill="#ffffff" d="M306.236 249.063c1.676-89.815-32.914-98.214-39.74-104.138l-8.471-2.918.471-4.254a83.16 83.16 0 0 0 11.189-23.639 17.9 17.9 0 0 0 12.036-16.891V83.434a17.9 17.9 0 0 0-12.041-16.893 84.294 84.294 0 0 0-138.39-37.874 21.3 21.3 0 0 0-35.8 18.354L99.137 73.1c-5.078 7.152-2.71 13.477-3.316 24.121a17.8 17.8 0 0 0 4.646 12.007c-24.391 21.569-4.529 64.123-2.653 71.237-11.012 12.509-10.2 25.057-12.365 33.3-.822 1.795-32.283 38.807 3.99 65.862 38.075 28.276 39.447 29.983 51.288 37.128L154.3 428.882c5.774 2.367 6.161 2.56 7.593 3.089L167.581 506l46.466-31.945 3.819-42.006c1.149-.3.755-.194 8.295-2.35l6.642-59.974L335.344 479.2c1.212-.848 76.765-7.788 104.658-116.066z" opacity="1" data-original="#ffffff" class=""></path><path fill="#ffad92" d="m145.174 88.3-18.9-48.038a10.423 10.423 0 0 0-12.191-6.3 10.423 10.423 0 0 0-7.831 11.564L121.88 157.35l26.533-19.308zM427.833 367.036s-21.309 85.393-88.786 100.23L211.905 331.522s-72.45-7.1-121.46-76l75.291-112.226 122.17 104.413z" opacity="1" data-original="#ffad92"></path><path fill="#d56565" d="m171.497 415.23 5.469 71.135 26.724-18.372 5.24-57.629z" opacity="1" data-original="#ff605b" class=""></path><circle cx="188.771" cy="90.329" r="73.466" fill="#efeae1" opacity="1" data-original="#eae5db" class=""></circle><rect width="164.176" height="27.8" x="106.683" y="76.429" fill="#adaae6" rx="6.449" opacity="1" data-original="#a369f7" class=""></rect><path fill="#344767" d="m248.008 133.77-31.842 287.489s-30.542 8.765-51.851 0L129.526 133.77a230.323 230.323 0 0 0 118.482 0z" opacity="1" data-original="#00abfe" class=""></path><path fill="#ffad92" d="M197.113 136.506c7.477 2.719 19.873 6.523 31.306 6.789l33.76 11.633c29.788 15.621 35.769 65.6 32.953 98.942l-42.741 25.592s-22.729-20.39-10.853-87.271c0 0-57.208-27.751-55.63-48.592a8.353 8.353 0 0 1 11.205-7.093z" opacity="1" data-original="#ffad92"></path><path fill="#ed6c4d" d="M245.682 300.83c-19.774-50.237-8.589-97.535-8.1-99.523a2.5 2.5 0 0 1 4.857 1.185c-.115.472-11.273 47.8 7.9 96.507a2.5 2.5 0 0 1-4.652 1.831z" opacity="1" data-original="#ed6c4d" class=""></path><path fill="#ffad92" d="m115.305 198.52-14.979-44.793a35.679 35.679 0 0 1-.5-21.018l1.458-5.157a21.391 21.391 0 0 1 22.32-15.5l43.017 8.694 26.5 11.653c8.01 3.523 8.339 14.916.444 18.69-5.5 2.63-14.845 2.79-30.668-3.556l-25.038 3.045 13.85 31.963z" opacity="1" data-original="#ffad92"></path><path fill="#ffad92" d="m127.484 294.447-31.551-23.53a33.135 33.135 0 0 1-12.2-17.977 25.971 25.971 0 0 1 2.9-20.233l9.139-15.007c2.365-6.773.286-29.688 22.268-38.661l24.094-9.835a24.2 24.2 0 0 1 17.28-.385l35.444 12.656 18.282 12.188c6.127 4.085 5.8 13.481-.823 16.694-5.344 2.591-14.156 2.547-28.646-5.443H148.9l-22.227 9.057 28.234-.533 36.4 5.241a7.5 7.5 0 0 1 5.39 11.27c-3.164 5.221-10.092 10.273-25.2 9.059l-33.64 4.795-13.851 14.916z" opacity="1" data-original="#ffad92"></path><path fill="#ed6c4d" d="M122.305 260.549a2.5 2.5 0 0 1-.131-3.533l13.851-14.916a2.5 2.5 0 0 1 1.479-.774l33.64-4.795a2.494 2.494 0 0 1 .553-.017c11.289.912 19.2-1.811 22.863-7.863a5 5 0 0 0-3.608-7.5l-36.2-5.212-28.032.529a2.5 2.5 0 0 1-.99-4.815l22.226-9.056a2.518 2.518 0 0 1 .943-.184c36.434.109 34.94-.263 35.981.31 11.464 6.321 20.574 8.182 26.35 5.382 4.89-2.371 5.061-9.341.526-12.364l-18.026-12.017-35.154-12.552a21.664 21.664 0 0 0-15.494.345l-24.094 9.835a2.5 2.5 0 0 1-1.89-4.629l24.094-9.835a26.658 26.658 0 0 1 19.066-.425l35.442 12.655c.546.195-.407-.33 18.828 12.463 7.688 5.125 7.295 16.943-1.118 21.023-7.3 3.537-17.513 1.79-30.377-5.191h-33.647l-9.334 3.8 14.8-.279a2.013 2.013 0 0 1 .4.024l36.405 5.241a10 10 0 0 1 7.171 15.04c-3.268 5.394-10.648 11.538-27.259 10.278l-32.491 4.631-13.248 14.267a2.5 2.5 0 0 1-3.525.134z" opacity="1" data-original="#ed6c4d" class=""></path></g></svg>