<svg xmlns="http://www.w3.org/2000/svg" version="1.1" xmlns:xlink="http://www.w3.org/1999/xlink" width="512" height="512" x="0" y="0" viewBox="0 0 512 512" style="enable-background:new 0 0 512 512" xml:space="preserve" class=""><g><path d="M242.52 477.66c-3.854 0-7.868-.108-11.932-.321a42.634 42.634 0 0 1-1.49-.108 210.06 210.06 0 0 1-29.19-3.794c-.575-.1-1.133-.211-1.703-.351a206.413 206.413 0 0 1-17.699-4.484 22.016 22.016 0 0 1-10.472 2.658c-9.629 0-17.844-6.171-20.896-14.767l-.39-.186a94.116 94.116 0 0 1-2.62-1.299 211.863 211.863 0 0 1-8.081-4.235l-1.176-.666a216.93 216.93 0 0 1-24.474-16.048 486.83 486.83 0 0 1-15.8-1.256c-8.292-.806-17.121-1.868-25.902-5.158-22.37-8.377-33.525-30.487-40.744-48.813-8.497-21.569-13.046-39.62-14.318-56.807-1.306-17.677 1.24-35.031 7.227-50.074l-15.192-7.407a13.649 13.649 0 0 1-1.919-23.396l23.979-17.023a207.718 207.718 0 0 1 3.023-14.409c.067-.285.276-1.12.276-1.12a214.108 214.108 0 0 1 4.927-16.592c.073-.233.153-.465.239-.696a214.57 214.57 0 0 1 4.698-12.456c.126-.315.507-1.22.507-1.22.336-.79.621-1.448.914-2.089a65.71 65.71 0 0 1 1.252-2.849 212.069 212.069 0 0 1 13.226-24.805l.655-1.051c4.886-7.765 10.14-15.074 15.718-21.881.434-.535.861-1.059 1.308-1.583a183.907 183.907 0 0 1 5.383-6.201c.418-.488.853-.959 1.291-1.425a217.108 217.108 0 0 1 22.66-21.439c.478-.411.971-.804 1.47-1.193a209.046 209.046 0 0 1 8.968-6.823 54.931 54.931 0 0 1 1.887-1.35 217.163 217.163 0 0 1 18.67-11.79l1.199-.68c9.559-5.279 19.47-9.82 29.498-13.518.285-.113 1.308-.492 1.399-.525a191.783 191.783 0 0 1 9.19-3.084c1.235-.392 2.61-.816 3.987-1.198a199.706 199.706 0 0 1 16.151-4.021c.569-.139 1.125-.25 1.7-.349a210.245 210.245 0 0 1 28.077-3.724c4.649-7.116 12.669-11.713 21.79-11.713 9.664 0 18.178 5.375 22.666 13.296 6.286.86 12.5 1.99 18.561 3.378.545.127 1.014.24 1.452.357a190.61 190.61 0 0 1 10.543 2.782c1.371.38 2.739.803 4.085 1.229a206.062 206.062 0 0 1 14.804 5.228c.425.165.894.358 1.39.574a213.057 213.057 0 0 1 29.448 14.573l1.06.61a193.46 193.46 0 0 1 7.005 4.433h137.549C505.889 80.8 512 86.91 512 94.448V262.48c0 7.537-6.111 13.648-13.648 13.648h-36.446a22.069 22.069 0 0 1 5.182 14.229c0 9.422-5.907 17.488-14.214 20.691a211.87 211.87 0 0 1-5.875 20.458 25.71 25.71 0 0 1-.621 1.784l-.001.002a172.642 172.642 0 0 1-1.13 3.164 213.544 213.544 0 0 1-11.622 26.003c-.258.51-.517.999-.803 1.512a213.04 213.04 0 0 1-17.234 26.993c-.326.443-.716.948-1.117 1.46-.248.344-.511.689-.788 1.032-.317.43-.66.868-1.005 1.293a215.981 215.981 0 0 1-27.395 29.022c-.243.237-.494.464-.755.682a13.805 13.805 0 0 1-2.341 2.001 217.205 217.205 0 0 1-28.25 20.314l-1.278.74a201.037 201.037 0 0 1-13.855 7.556c-.854.438-1.729.874-2.604 1.288-.674.324-1.368.652-2.084.984-3.455 10.331-13.222 17.797-24.701 17.797a25.997 25.997 0 0 1-13.919-4.028c-1.03.262-2.031.507-3.019.74-.408.11-.822.211-1.229.305l-.231.055a214.017 214.017 0 0 1-29.449 4.614c-.491.055-1.001.105-1.513.139-5.674.465-11.573.702-17.535.702z" style="" fill="#ffffff" data-original="#ffffff"></path><path d="M446.085 261.608c0 2.653-.043 5.285-.173 7.917 0 .388 0 .755-.043 1.122a195.967 195.967 0 0 1-3.149 27.762 6.668 6.668 0 0 1-.216 1.143 195.143 195.143 0 0 1-7.334 27.762c-.108.367-.237.755-.388 1.122 0 .043-.022.065-.043.108a142.827 142.827 0 0 1-1.143 3.214 199.036 199.036 0 0 1-10.937 24.44c-.194.388-.388.755-.604 1.143a199.961 199.961 0 0 1-16.222 25.433c-.367.496-.755.992-1.143 1.488-.194.28-.41.561-.647.841-.259.367-.561.755-.863 1.122a201.836 201.836 0 0 1-26.23 27.719c-.022.021-.022.043-.043.043l-1.1.971a1.559 1.559 0 0 1-.216.173 202.668 202.668 0 0 1-27.547 19.954c-.367.216-.755.431-1.122.647a187.415 187.415 0 0 1-13.094 7.14c-.755.388-1.531.777-2.308 1.143-4.034 1.941-8.154 3.775-12.361 5.436-.388.173-.755.324-1.143.475a197.435 197.435 0 0 1-27.762 8.693c-.367.108-.755.194-1.122.28a199.464 199.464 0 0 1-27.762 4.336c-.367.043-.755.086-1.143.108-5.458.453-10.98.669-16.545.669-3.754 0-7.507-.108-11.217-.302-.367-.021-.755-.043-1.122-.086a195.777 195.777 0 0 1-27.762-3.602 10.795 10.795 0 0 1-1.143-.237 195.585 195.585 0 0 1-27.741-7.83c-.388-.151-.776-.28-1.143-.431a197.201 197.201 0 0 1-17.71-7.507 77.364 77.364 0 0 1-2.308-1.143 202.448 202.448 0 0 1-7.744-4.055c-.388-.216-.755-.431-1.143-.647a202.594 202.594 0 0 1-27.741-18.767c-.388-.302-.777-.604-1.143-.928-1.337-1.1-2.675-2.2-3.991-3.344a63.879 63.879 0 0 1-1.316-1.143 205.597 205.597 0 0 1-22.455-23.016c-.388-.453-.755-.906-1.122-1.359-.906-1.122-1.812-2.243-2.696-3.387a19.598 19.598 0 0 1-.863-1.122 199.818 199.818 0 0 1-18.012-27.762c-.216-.388-.41-.755-.604-1.143a185.19 185.19 0 0 1-5.587-11.39 55.545 55.545 0 0 1-1.143-2.61 180.157 180.157 0 0 1-5.393-13.763c-.151-.367-.28-.755-.388-1.122a195.178 195.178 0 0 1-7.334-27.762 6.668 6.668 0 0 1-.216-1.143 195.821 195.821 0 0 1-3.149-27.762c-.043-.367-.043-.734-.043-1.122a161.499 161.499 0 0 1-.173-7.917c0-6.709.324-13.331.971-19.846.022-.388.065-.776.108-1.143a198.837 198.837 0 0 1 4.832-27.741c.086-.388.194-.776.28-1.143a200.428 200.428 0 0 1 9.232-27.762c.151-.388.324-.777.475-1.143.259-.604.518-1.208.798-1.812.367-.884.733-1.747 1.143-2.61a197.529 197.529 0 0 1 12.425-23.318c.237-.389.474-.755.712-1.143a200.708 200.708 0 0 1 14.625-20.342c.367-.453.733-.906 1.122-1.359a173.006 173.006 0 0 1 5.263-6.061c.324-.388.669-.755 1.014-1.122a203.483 203.483 0 0 1 21.485-20.32c.367-.324.755-.626 1.143-.928a194.667 194.667 0 0 1 8.564-6.514 42.663 42.663 0 0 1 1.596-1.143 202.654 202.654 0 0 1 17.581-11.109c.388-.216.755-.432 1.143-.647a200.819 200.819 0 0 1 27.762-12.706c.367-.151.755-.281 1.143-.432a180.863 180.863 0 0 1 8.542-2.869c1.229-.389 2.481-.777 3.732-1.122a184.518 184.518 0 0 1 15.467-3.84c.388-.108.755-.172 1.143-.237a195.777 195.777 0 0 1 27.762-3.602c.367-.043.755-.065 1.122-.086 3.71-.194 7.464-.302 11.217-.302 5.565 0 11.088.216 16.545.669.388.022.776.065 1.143.108a199.464 199.464 0 0 1 27.762 4.336c.367.086.755.173 1.122.281 3.43.798 6.816 1.683 10.16 2.675 1.251.345 2.502.733 3.732 1.122a191.915 191.915 0 0 1 13.87 4.897c.388.151.755.302 1.143.475a198.785 198.785 0 0 1 27.762 13.719c.367.216.755.432 1.122.647a192.834 192.834 0 0 1 12.253 8.025c.539.367 1.079.755 1.596 1.143a201.518 201.518 0 0 1 13.913 10.958l1.143 1.014a199.227 199.227 0 0 1 16.135 15.79c.345.367.69.734 1.014 1.122 3.71 4.099 7.248 8.37 10.592 12.77.388.496.777.992 1.143 1.488a202.2 202.2 0 0 1 9.276 13.504c.237.388.474.755.712 1.143a199.625 199.625 0 0 1 14.367 27.741c.151.367.323.755.474 1.143a174.696 174.696 0 0 1 2.934 7.485c.388 1.057.777 2.136 1.143 3.214a197.218 197.218 0 0 1 5.155 17.063c.086.367.194.755.28 1.143a198.837 198.837 0 0 1 4.832 27.741c.043.367.086.755.108 1.143.648 6.51.972 13.133.972 19.841z" style="" fill="#badff2" data-original="#fff1e6" class="" opacity="1"></path><g style="opacity:0.41;"><path d="M59.117 178.408v166.401a55.545 55.545 0 0 1-1.143-2.61V181.018c.367-.884.733-1.747 1.143-2.61zM88.001 132.245v258.726c-.388-.453-.755-.906-1.122-1.359V133.604c.367-.453.734-.906 1.122-1.359zM116.907 103.814v315.588c-.388-.302-.777-.604-1.143-.928V104.742c.366-.324.754-.625 1.143-.928zM145.791 84.4v354.417c-.388-.216-.755-.431-1.143-.647V85.047c.388-.215.754-.431 1.143-.647zM173.553 71.695c.367-.151.755-.281 1.143-.432v380.691c-.388-.151-.776-.28-1.143-.431V71.695zM203.58 63.196v396.826a10.795 10.795 0 0 1-1.143-.237V63.433a10.55 10.55 0 0 1 1.143-.237zM232.464 59.507V463.71c-.367-.021-.755-.043-1.122-.086V59.593c.367-.043.755-.065 1.122-.086zM261.37 59.982v403.254c-.367.043-.755.086-1.143.108V59.874c.388.021.776.064 1.143.108zM290.254 64.598v394.021c-.367.108-.755.194-1.122.28V64.317c.367.087.755.173 1.122.281zM318.016 73.291c.388.151.755.302 1.143.475v375.686c-.388.173-.755.324-1.143.475V73.291zM346.921 87.485c.367.216.755.432 1.122.647v346.953c-.367.216-.755.431-1.122.647V87.485zM375.805 108.258l1.143 1.014v304.716h-.043l-1.1.971V108.258zM404.689 138.954c.388.496.777.992 1.143 1.488v242.332c-.367.496-.755.992-1.143 1.488V138.954zM433.595 191.459c.388 1.057.777 2.136 1.143 3.214v133.872a142.827 142.827 0 0 1-1.143 3.214v-140.3z" style="" fill="#4da5a0" data-original="#7182ff" class="" opacity="1"></path></g><g style="opacity:0.41;"><path d="M300.414 67.273c1.251.345 2.502.733 3.732 1.122H183.238c1.229-.389 2.481-.777 3.732-1.122h113.444zM360.296 96.157c.539.367 1.079.755 1.596 1.143H125.471a42.663 42.663 0 0 1 1.596-1.143h233.229zM393.084 125.062c.345.367.69.734 1.014 1.122H93.265c.324-.388.669-.755 1.014-1.122h298.805zM415.108 153.946c.237.388.474.755.712 1.143H71.542c.237-.389.474-.755.712-1.143h342.854zM430.187 182.83c.151.367.323.755.474 1.143H56.701c.151-.388.324-.777.475-1.143h373.011zM440.174 212.879H47.188c.086-.388.194-.776.28-1.143h392.425c.087.367.195.755.281 1.143zM445.114 241.763H42.248c.022-.388.065-.776.108-1.143h402.65c.043.366.086.755.108 1.143zM445.912 269.525c0 .388 0 .755-.043 1.122H41.493c-.043-.367-.043-.734-.043-1.122h404.462zM442.72 298.409a6.668 6.668 0 0 1-.216 1.143H44.859a6.668 6.668 0 0 1-.216-1.143H442.72zM435.17 327.315c-.108.367-.237.755-.388 1.122h-382.2c-.151-.367-.28-.755-.388-1.122H435.17zM422.658 356.199c-.194.388-.388.755-.604 1.143H65.308c-.216-.388-.41-.755-.604-1.143h357.954zM404.042 385.104c-.259.367-.561.755-.863 1.122H84.183a19.598 19.598 0 0 1-.863-1.122h320.722zM376.906 413.988l-1.1.971v.173H111.773a63.879 63.879 0 0 1-1.316-1.143h266.449zM333.828 442.872c-.755.388-1.531.777-2.308 1.143H155.843a77.364 77.364 0 0 1-2.308-1.143h180.293z" style="" fill="#4da5a0" data-original="#7182ff" class="" opacity="1"></path></g><path d="M234.69 94.448h264.824v168.031H370.332l-43.061 47.235 20.095-46.46H238.279z" style="" fill="#4da5a0" data-original="#7182ff" class="" opacity="1"></path><path d="m384.018 220.757-.637 8.78-.046.569-.25 3.548-.046.591-.296 4.254-.045.591-.045.614c-.25 3.344-2.889 6.119-6.255 6.301-4.436.273-9.144-.501-12.67-1.319-3.185-.751-5.368-3.685-5.209-6.938v-.114l.023-.478.364-5.755.023-.591.25-3.958.046-.637.409-6.892 24.384 1.434z" style="" fill="#4da5a0" data-original="#ffa761" class="" opacity="1"></path><path d="m383.381 229.537-.046.569c-2.82.569-5.55.842-8.189.842-.728 0-1.456-.023-2.161-.046-5.095-.296-9.849-1.706-13.807-4.049l.046-.637c3.935 2.388 8.689 3.821 13.784 4.117 3.321.182 6.756-.091 10.373-.796zM383.085 233.654l-.046.591a43.387 43.387 0 0 1-7.074.569c-5.823 0-11.669-1.137-17.06-3.412l.023-.591c7.598 3.207 16.059 4.185 24.157 2.843zM382.744 238.499l-.045.591a43.464 43.464 0 0 1-9.69 1.069c-4.913 0-9.826-.796-14.489-2.411v-.114l.023-.478c7.755 2.708 16.194 3.163 24.201 1.343zM356.901 115.767c-23.086 4.779-47.866 20.024-44.634 47.132 1.553 13.025 9.806 23.02 21.311 28.671 7.493 3.68 18.076 7.128 20.8 15.995.857 2.789.781 5.836 1.921 8.522 2.626 6.191 10.382 8.115 17.087 8.627 3.804.291 7.968.282 10.991-2.046 6.173-4.756 3.804-15.899 10.066-20.538 2.067-1.531 4.699-2.013 7.209-2.574 8.66-1.937 17.192-5.45 23.601-11.589 10.016-9.595 13.522-25.098 9.535-38.383-9.352-31.157-47.237-39.724-75.682-34.256-.737.141-1.471.287-2.205.439z" style="" fill="#badff2" data-original="#fff1e6" class="" opacity="1"></path><path d="M374.428 229.176a.569.569 0 0 1-.568-.536c-.338-5.939 1.453-11.66 3.477-17.486 3.047-8.761 6.583-18.053 11.789-26.649.418-.69.847-1.379 1.278-2.071 2.441-3.917 4.967-7.969 5.43-12.486.295-2.872-.5-5.367-2.127-6.673-2.621-2.108-6.675-.908-9.327 1.096a17.184 17.184 0 0 0-3.564 3.661 15 15 0 0 1 .703 2.312c.639 2.944.853 8.094-.666 10.329-.43.633-.974 1.007-1.617 1.113a.555.555 0 0 1-.36-.06c-2.248-1.202-2.621-4.207-2.221-6.619a18.475 18.475 0 0 1 2.873-7.21 14.243 14.243 0 0 0-4.999-5.998c-.581-.393-1.348-.845-2.14-.854-1.016.012-1.974.716-2.608 1.266-1.39 1.206-2.54 2.68-3.419 4.31 1.693 3.776 2.368 8.038 1.868 12.128-.096.785-.258 1.598-.796 2.226a2.144 2.144 0 0 1-1.441.732c-.463.042-.88-.1-1.198-.375-.345-.299-.511-.701-.639-1.053-1.628-4.477-1.198-9.522.924-13.719a21.186 21.186 0 0 0-1.455-2.552c-.888-1.331-2.308-2.894-3.986-2.75-1.342.11-2.36 1.294-2.848 1.99-2.258 3.222-2.3 7.486-2.01 11.613.695 9.9 2.701 19.675 5.96 29.051.324.933.662 1.869 1.001 2.809 2.18 6.046 4.435 12.298 3.521 18.7a.58.58 0 0 1-.643.483.568.568 0 0 1-.483-.643c.874-6.123-1.332-12.239-3.464-18.155-.341-.943-.68-1.884-1.006-2.821a113.735 113.735 0 0 1-6.02-29.345c-.304-4.337-.246-8.834 2.215-12.346 1.04-1.484 2.348-2.361 3.686-2.47 1.762-.144 3.509.98 5.025 3.252.427.637.819 1.299 1.176 1.981a16.575 16.575 0 0 1 3.288-3.907c.767-.664 1.944-1.544 3.331-1.544h.036c1.095.012 2.052.568 2.764 1.05a15.363 15.363 0 0 1 5.121 5.884 18.27 18.27 0 0 1 3.406-3.376c2.991-2.265 7.625-3.569 10.727-1.076 2.78 2.232 2.706 6.111 2.544 7.675-.49 4.779-3.085 8.944-5.595 12.972-.429.688-.855 1.373-1.271 2.058-5.151 8.507-8.661 17.732-11.686 26.434-1.987 5.714-3.743 11.318-3.418 17.048a.569.569 0 0 1-.535.6l-.033.001zm5.607-59.961a17.287 17.287 0 0 0-2.259 6.077c-.323 1.949-.099 4.333 1.454 5.324.253-.09.477-.283.682-.584 1.259-1.85 1.097-6.676.496-9.448-.101-.462-.225-.92-.373-1.369zm-14.331-1.229c-1.6 3.749-1.861 8.105-.48 11.904.083.229.176.462.314.582a.504.504 0 0 0 .37.101c.241-.018.501-.15.661-.338.323-.377.447-.922.532-1.624.436-3.566-.068-7.268-1.397-10.625z" style="" fill="#4da5a0" data-original="#ffa761" class="" opacity="1"></path><path d="M411.563 155.062c.97 2.23 2.098 4.455 3.862 6.128 1.764 1.673 4.286 2.719 6.655 2.173 2.823-.651 4.732-3.329 5.737-6.047 2.889-7.812-.121-21.258-9.85-22.771-11.575-1.8-9.094 14.333-6.404 20.517zM414.297 182.999c.374.84.922 1.622 1.679 2.145 1.432.99 3.431.878 4.962.048 1.53-.831 2.645-2.272 3.463-3.809 2.081-3.913.527-10.996-5.149-10.327-4.809.565-6.625 8.195-4.955 11.943z" style="" fill="#ffffff" data-original="#ffffff"></path><path d="M94.339 316.828a2.274 2.274 0 0 1-2.268-2.135 2.273 2.273 0 0 1 2.13-2.41l170.161-10.453a2.269 2.269 0 0 1 2.41 2.13 2.273 2.273 0 0 1-2.13 2.41L94.481 316.824a2.244 2.244 0 0 1-.142.004zM94.339 334.832a2.274 2.274 0 0 1-2.268-2.135 2.273 2.273 0 0 1 2.13-2.41l170.161-10.453a2.268 2.268 0 0 1 2.41 2.13 2.273 2.273 0 0 1-2.13 2.41L94.481 334.827a1.684 1.684 0 0 1-.142.005z" style="" fill="#badff2" data-original="#fff1e6" class="" opacity="1"></path><path d="M330.523 281.913c-3.986-17.698-12.229-34.979-26.122-46.644-11.557-9.705-26.237-14.929-40.963-18.231-44.238-9.92-93.543-7.088-137.697 1.955-10.868 2.226-21.881 5.037-32.452 8.923-14.13 5.194-27.473 12.307-38.626 22.507-19.341 17.688-26.139 45.164-24.259 70.595 1.348 18.235 6.734 35.878 13.404 52.811 6.4 16.245 15.439 34.522 32.833 41.036 7.155 2.68 14.83 3.615 22.435 4.354 33.785 3.285 67.764 3.109 101.459-.22 14.477 13.553 31.308 24.592 49.546 32.383-6.527-11.621-11.864-23.991-15.34-36.851a557.716 557.716 0 0 0 32.66-6.326c27.718-6.24 55.152-14.557 64.231-44.412.796-2.616 1.436-5.281 1.969-7.962 4.798-24.148 2.293-50.07-3.078-73.918z" style="" fill="#d56565" data-original="#ff8c9d" class="" opacity="1"></path><path d="M94.339 298.824a2.274 2.274 0 0 1-2.268-2.135 2.273 2.273 0 0 1 2.13-2.41l170.161-10.453a2.27 2.27 0 0 1 2.41 2.13 2.273 2.273 0 0 1-2.13 2.41L94.481 298.82a2.244 2.244 0 0 1-.142.004zM94.339 316.828a2.274 2.274 0 0 1-2.268-2.135 2.273 2.273 0 0 1 2.13-2.41l170.161-10.453a2.269 2.269 0 0 1 2.41 2.13 2.273 2.273 0 0 1-2.13 2.41L94.481 316.824a2.244 2.244 0 0 1-.142.004zM94.339 334.832a2.274 2.274 0 0 1-2.268-2.135 2.273 2.273 0 0 1 2.13-2.41l170.161-10.453a2.268 2.268 0 0 1 2.41 2.13 2.273 2.273 0 0 1-2.13 2.41L94.481 334.827a1.684 1.684 0 0 1-.142.005zM94.339 352.836a2.274 2.274 0 0 1-2.268-2.135 2.273 2.273 0 0 1 2.13-2.41l170.161-10.455a2.267 2.267 0 0 1 2.41 2.13 2.273 2.273 0 0 1-2.13 2.41L94.481 352.831a2.245 2.245 0 0 1-.142.005z" style="" fill="#badff2" data-original="#fff1e6" class="" opacity="1"></path><path d="m178.454 112.064-17.906-22.843 64.077 13.551-34.652 60.011-1.645-33.006s-64.754 28.166-105.988 87.984l10.453-38.717L52.14 196.08s21.445-35.036 65.431-60.011c22.843-12.971 60.883-24.005 60.883-24.005z" style="" fill="#ffb289" data-original="#ffb289" class=""></path><path d="M337.161 381.382c-6.591 0-13.207-1.674-18.893-4.914a1.481 1.481 0 0 1-.553-2.019 1.484 1.484 0 0 1 2.019-.553c8.159 4.649 18.397 5.799 27.384 3.079 7.214-2.186 13.713-6.893 18.174-13.006-3.831-1.332-7.595-3.419-10.714-6.641a23.664 23.664 0 0 1-5.477-9.1c-.833-2.56-1.515-6.349-.032-9.856 2.203-5.22 8.923-7.962 14.671-5.984 5.039 1.733 8.95 6.652 9.964 12.532 1.051 6.099-.977 11.864-2.864 15.626a36.304 36.304 0 0 1-.882 1.651c2.49.564 5.168.895 7.989.977 15.132.433 29.713-5.788 38.965-16.659 9.717-11.416 12.798-27.441 7.85-40.823a1.48 1.48 0 0 1 2.776-1.026c5.312 14.37 2.027 31.549-8.372 43.769-9.829 11.549-25.229 18.186-41.306 17.698-2.859-.083-6.183-.42-9.574-1.273-4.845 7.038-12.156 12.477-20.31 14.946-3.487 1.057-7.148 1.576-10.815 1.576zm22.699-46.672c-3.445 0-6.826 1.878-8.065 4.814-1.127 2.668-.557 5.709.12 7.79a20.674 20.674 0 0 0 4.788 7.956c2.62 2.704 6.134 4.775 10.298 6.12.424-.709.822-1.432 1.192-2.169 1.687-3.366 3.506-8.492 2.593-13.798-.833-4.83-3.977-8.849-8.009-10.235a8.971 8.971 0 0 0-2.917-.478z" style="" fill="#ffffff" data-original="#381839" class="" opacity="1"></path><path d="m325.259 379.551 1.594 16.462-36.837-26.564 42.827-5.311z" style="" fill="#ffffff" data-original="#381839" class="" opacity="1"></path><circle cx="250.951" cy="60.377" r="12.389" style="" fill="#d56565" data-original="#ff8c9d" class="" opacity="1"></circle><circle cx="310.575" cy="449.095" r="12.389" style="" fill="#d56565" data-original="#ff8c9d" class="" opacity="1"></circle><path d="m367.102 316.683 9.292-40.266 29.425 29.425zM14.81 252.276l33.696-23.921 2.444 41.541z" style="" fill="#7673ab" data-original="#bd6eeb" class="" opacity="1"></path><path d="M179.712 449.095a8.518 8.518 0 1 1-17.037 0 8.518 8.518 0 0 1 17.037 0z" style="" fill="#ffffff" data-original="#381839" class="" opacity="1"></path><circle cx="209.911" cy="185.82" r="8.518" style="" transform="rotate(-85.929 209.916 185.815)" fill="#ffffff" data-original="#381839" class="" opacity="1"></circle><circle cx="446.085" cy="290.355" r="8.518" style="" transform="rotate(-22.624 446.06 290.34)" fill="#ffffff" data-original="#381839" class="" opacity="1"></circle><path d="M268.434 239.386c-.11 3.502 1.209 6.918 3.031 9.911 4.174 6.857 11.167 11.938 18.978 13.79 3.451.818 7.397.928 10.212-1.228 3.003-2.3 3.832-6.652 2.874-10.311-.958-3.659-3.376-6.75-5.928-9.542-5.966-6.53-28.576-21.457-29.167-2.62zM303.532 283.517c.811.467 1.704.813 2.636.896 2.311.204 4.478-1.241 5.985-3.006 4.457-5.223 1.133-14.69-6.526-12.988-7.413 1.646-8.479 11.426-2.095 15.098z" style="" fill="#badff2" data-original="#fff1e6" class="" opacity="1"></path></g></svg>