<svg id="Capa_1" enable-background="new 0 0 512 512" height="512" viewBox="0 0 512 512" width="512" xmlns="http://www.w3.org/2000/svg"><g><g><path d="m180 312h-120c-33.084 0-60 26.916-60 60v80c0 33.084 26.916 60 60 60h120c33.084 0 60-26.916 60-60v-80c0-33.084-26.916-60-60-60zm20 140c0 11.028-8.972 20-20 20h-120c-11.028 0-20-8.972-20-20v-80c0-11.028 8.972-20 20-20h120c11.028 0 20 8.972 20 20zm252-452h-120c-33.084 0-60 26.916-60 60v80c0 33.084 26.916 60 60 60h120c33.084 0 60-26.916 60-60v-80c0-33.084-26.916-60-60-60zm20 140c0 11.028-8.972 20-20 20h-120c-11.028 0-20-8.972-20-20v-80c0-11.028 8.972-20 20-20h120c11.028 0 20 8.972 20 20zm-20 92h-120c-33.084 0-60 26.916-60 60v160c0 33.084 26.916 60 60 60h120c33.084 0 60-26.916 60-60v-160c0-33.084-26.916-60-60-60zm20 220c0 11.028-8.972 20-20 20h-120c-11.028 0-20-8.972-20-20v-160c0-11.028 8.972-20 20-20h120c11.028 0 20 8.972 20 20zm-292-452h-120c-33.084 0-60 26.916-60 60v160c0 33.084 26.916 60 60 60h120c33.084 0 60-26.916 60-60v-160c0-33.084-26.916-60-60-60zm20 220c0 11.028-8.972 20-20 20h-120c-11.028 0-20-8.972-20-20v-160c0-11.028 8.972-20 20-20h120c11.028 0 20 8.972 20 20z"/></g></g></svg>