<svg id="Capa_1" enable-background="new 0 0 512 512" height="512" viewBox="0 0 512 512" width="512" xmlns="http://www.w3.org/2000/svg">
  <g>
    <path d="m466 180c-24.813 0-45 20.187-45 45v172c0 8.271-6.729 15-15 15s-15-6.729-15-15v-242c0-24.813-20.187-45-45-45s-45 20.187-45 45v312c0 8.271-6.729 15-15 15s-15-6.729-15-15v-422c0-24.813-20.187-45-45-45s-45 20.187-45 45v362c0 8.271-6.729 15-15 15s-15-6.729-15-15v-302c0-24.813-20.187-45-45-45s-45 20.187-45 45v202c0 8.271-6.729 15-15 15s-15-6.729-15-15v-92c0-8.284-6.716-15-15-15s-15 6.716-15 15v92c0 24.813 20.187 45 45 45s45-20.187 45-45v-202c0-8.271 6.729-15 15-15s15 6.729 15 15v302c0 24.813 20.187 45 45 45s45-20.187 45-45v-362c0-8.271 6.729-15 15-15s15 6.729 15 15v422c0 24.813 20.187 45 45 45s45-20.187 45-45v-312c0-8.271 6.729-15 15-15s15 6.729 15 15v242c0 24.813 20.187 45 45 45s45-20.187 45-45v-172c0-8.271 6.729-15 15-15s15 6.729 15 15v72c0 8.284 6.716 15 15 15s15-6.716 15-15v-72c0-24.813-20.187-45-45-45z" fill="#384664"/>
  </g>
</svg>
